# xmcd
#
# Track frame offsets:
#	150
#	16524
#	31948
#	54586
#	69368
#	84912
#	105199
#	124761
#	146223
#	165611
#	185849
#	205869
#	221193
#	245304
#
# Disc length: 3492 seconds
#
# Revision: 1
# Processed by: cddbd v1.5.2PL0 Copyright (c) Steve Scherf et al.
# Submitted via: audiograbber 1.82.02
#
DISCID=ba0da20e
DTITLE=Shedaisy - Knock On The Sky
DYEAR=2002
DGENRE=Country
TTITLE0=Mine All Mine
TTITLE1=I'm Lit
TTITLE2=Man Goin' Down
TTITLE3=Get Over Yourself
TTITLE4=Rush
TTITLE5=I Wish I Were the Rain
TTITLE6=Repent
TTITLE7=Everybody Wants You
TTITLE8=Now
TTITLE9=All Over You
TTITLE10=The First To Let Go
TTITLE11=Turn Me On
TTITLE12=Help Me
TTITLE13=Untitled - (Hidden Track)
EXTD=Dream`Master
EXTT0=
EXTT1=
EXTT2=
EXTT3=
EXTT4=
EXTT5=
EXTT6=
EXTT7=
EXTT8=
EXTT9=
EXTT10=
EXTT11=
EXTT12=
EXTT13=
PLAYORDER=
